HIERARCHY
ROOT pelvis
{
  OFFSET 0 100 0
  CHANNELS 6 Xposition Yposition Zposition Zrotation Xrotation Yrotation
  JOINT pelvis_right_femur
  {
    OFFSET -10.78128 -3.44521 -0.5502486
    CHANNELS 3 Zrotation Xrotation Yrotation
    JOINT right_femur_tibia
    {
      OFFSET -0.8047443 -44.0398 -0.1307829
      CHANNELS 3 Zrotation Xrotation Yrotation
      JOINT right_tibia_foot
      {
        OFFSET 3.006224 -47.83518 -5
        CHANNELS 3 Zrotation Xrotation Yrotation
        End Site
        {
          OFFSET 0 -5 15
        }
      }
    }
  }
  JOINT pelvis_left_femur
  {
    OFFSET 10.78128 -3.44521 -0.5502486
    CHANNELS 3 Zrotation Xrotation Yrotation
    JOINT left_femur_tibia
    {
      OFFSET 0.8047443 -44.0398 -0.1307829
      CHANNELS 3 Zrotation Xrotation Yrotation
      JOINT left_tibia_foot
      {
        OFFSET -4.370144 -48.10324 -4.275266
        CHANNELS 3 Zrotation Xrotation Yrotation
        End Site
        {
          OFFSET 0 -5 15
        }
      }
    }
  }
  JOINT pelvis_spine1
  {
    OFFSET 0 6.468898 -3.129235
    CHANNELS 3 Zrotation Xrotation Yrotation
    JOINT spine1
    {
      OFFSET 0 23.15396 4.99043
      CHANNELS 3 Zrotation Xrotation Yrotation
      JOINT spine2
      {
        OFFSET 0 20.79997 -5.064912
        CHANNELS 3 Zrotation Xrotation Yrotation
        JOINT neck
        {
          OFFSET 0 14.38658 9.616178
          CHANNELS 3 Zrotation Xrotation Yrotation
          End Site
          {
            OFFSET 0 20 0
          }
        }
      }
      JOINT right_manubrium
      {
        OFFSET -5.722621 16.35077 3.967754
        CHANNELS 3 Zrotation Xrotation Yrotation
        JOINT right_clavicle
        {
          OFFSET -13.16364 1.694482 -4.693211
          CHANNELS 3 Zrotation Xrotation Yrotation
          JOINT right_humerus
          {
            OFFSET -28.5034 -0.3100689 -2.792744
            CHANNELS 3 Zrotation Xrotation Yrotation
            JOINT right_radius
            {
              OFFSET -25.15693 0.02248979 -1.271978
              CHANNELS 3 Zrotation Xrotation Yrotation
              End Site
              {
                OFFSET -15 0 0
              }
            }
          }
        }
      }
      JOINT left_manubrium
      {
        OFFSET 5.722621 16.35077 3.967754
        CHANNELS 3 Zrotation Xrotation Yrotation
        JOINT left_clavicle
        {
          OFFSET 13.16364 1.694482 -4.693211
          CHANNELS 3 Zrotation Xrotation Yrotation
          JOINT left_humerus
          {
            OFFSET 29.39168 -1.063119 -2.237045
            CHANNELS 3 Zrotation Xrotation Yrotation
            JOINT left_radius
            {
              OFFSET 24.59957 -0.9528479 0.9047498
              CHANNELS 3 Zrotation Xrotation Yrotation
              End Site
              {
                OFFSET 15 -0 -0
              }
            }
          }
        }
      }
    }
  }
}
MOTION
Frames: 11
Frame Time: 0.0416666666667
1799.547 97.12743 2462.322 7.960296 -1.58677 69.38128 0.03212129 -17.82875 2.140859 -0 35.04915 -0 1.654559 -4.12478 -9.184933 -5.18235 10.10556 -8.196021 -0 16.14422 -0 -4.622471 -17.34381 14.26887 -2.241054 0.3563989 5.942836 0.8401843 11.72114 -6.037142 1.979092 21.31019 4.596886 1.346666 -15.83221 5.945498 4.65092 -17.39452 11.84542 82.22104 24.47232 -12.28138 -0 0 16.16346 -22.26602 12.54046 13.18291 2.978665 -18.14595 -4.906046 -85.85261 20.12548 15.36907 0 0 -17.99686 -1.709866 6.621019 16.23644
1805.384 96.07395 2464.52 8.021945 -1.271456 70.00268 -0.001627446 -19.70356 2.000635 -0 27.13557 -0 2.619283 -4.594339 -10.00417 -5.125271 13.14757 -7.7393 -0 18.00588 -0 -6.216618 -17.97813 13.53335 -2.266814 0.3570636 5.86734 0.9151118 11.73028 -6.112486 1.945082 21.31756 4.630246 1.361111 -15.92636 5.934884 4.703485 -17.31403 11.8641 82.27533 24.61696 -12.45138 -0 0 15.89111 -22.20984 12.55804 13.18931 2.947035 -18.2217 -4.935335 -85.74158 20.10294 15.22237 0 0 -18.1513 -1.672145 6.654214 16.19303
1811.615 94.99708 2467.05 8.268991 -1.151188 70.46363 0.3178159 -20.64963 2.407633 -0 21.73938 -0 3.365323 -4.985625 -10.8982 -4.879238 16.06702 -7.486588 -0 21.50362 -0 -8.034031 -17.94893 12.94215 -2.265715 0.3680858 5.863887 0.9526826 11.71975 -6.118936 1.910225 21.31611 4.662952 1.394221 -16.04037 5.912916 4.719699 -17.34087 11.89216 82.21833 24.72603 -12.41905 -0 0 15.85458 -22.20044 12.54142 13.23529 2.930372 -18.24555 -4.918719 -85.76528 20.09902 15.27301 0 0 -18.17974 -1.642302 6.67475 16.16251
1818.161 94.2148 2469.921 8.681213 -1.484869 70.74287 1.196086 -20.47639 3.212711 -0 20.03337 -0 2.989072 -5.490551 -11.48533 -4.287619 18.35243 -7.585668 -0 26.8461 -0 -9.474963 -16.90919 12.93148 -2.238191 0.3898878 5.930376 0.9555745 11.68904 -6.058907 1.872997 21.30677 4.696508 1.447864 -16.17782 5.878384 4.701049 -17.47187 11.93034 82.04929 24.80849 -12.18904 -0 0 16.04425 -22.23364 12.49179 13.31922 2.928789 -18.22275 -4.855485 -85.91857 20.11435 15.51269 0 0 -18.09188 -1.616511 6.685501 16.14042
1824.863 93.99574 2473.041 8.919761 -2.189365 70.75465 2.577658 -19.16763 4.166416 -0 20.98942 -0 1.439778 -5.923363 -11.43459 -3.488232 19.0371 -7.832853 -0 33.77807 -0 -10.03543 -14.76593 13.57989 -2.192338 0.417248 6.035534 0.9364678 11.64727 -5.962869 1.836787 21.29364 4.728533 1.512765 -16.31884 5.838035 4.658028 -17.65473 11.97082 81.8311 24.86973 -11.86771 -0 0 16.35534 -22.28514 12.42795 13.41195 2.942617 -18.17868 -4.76556 -86.13997 20.14271 15.84425 0 0 -17.94952 -1.588345 6.68794 16.11558
1831.523 94.39051 2476.238 8.731994 -2.873259 70.43407 4.067823 -16.8685 5.13749 -0 22.17927 -0 -0.2935605 -6.137622 -10.84461 -2.840043 17.49961 -7.911879 -0 41.25822 -0 -9.92255 -11.99309 14.47142 -2.142588 0.4423731 6.149247 0.9031223 11.60586 -5.858583 1.809824 21.2808 4.75177 1.571612 -16.42977 5.802405 4.605098 -17.83965 12.00379 81.61974 24.90155 -11.54018 -0 0 16.69717 -22.3397 12.36654 13.49118 2.965326 -18.12707 -4.674061 -86.36615 20.1743 16.17614 0 0 -17.79517 -1.562915 6.683926 16.09265
1838.007 95.22957 2479.356 8.303774 -3.244657 69.80813 5.212356 -13.87207 6.044102 -0 22.08296 -0 -1.142561 -6.122799 -10.08796 -2.521115 14.08122 -7.6645 -0 48.03535 -0 -9.736524 -9.379796 15.17921 -2.100354 0.4607341 6.255689 0.8603309 11.57116 -5.759902 1.796098 21.27004 4.762577 1.613471 -16.49565 5.777322 4.55383 -18.00444 12.02552 81.43548 24.90083 -11.23561 -0 0 17.02689 -22.39435 12.31345 13.55404 2.987626 -18.07017 -4.59597 -86.56441 20.20151 16.46763 0 0 -17.64215 -1.547684 6.676129 16.08158
1844.296 96.28137 2482.337 8.052105 -3.305238 68.96057 5.8153 -10.42246 6.866716 -0 20.69663 -0 -0.661536 -5.883414 -9.500508 -2.408153 9.608093 -7.059984 -0 53.51263 -0 -9.878061 -7.451079 15.66496 -2.06641 0.4722771 6.350175 0.8113387 11.54518 -5.67149 1.79476 21.2606 4.761867 1.637937 -16.51866 5.762932 4.506556 -18.14316 12.0364 81.28705 24.868 -10.96984 -0 0 17.32905 -22.44839 12.27082 13.60022 3.008431 -18.01066 -4.534649 -86.72865 20.22195 16.71011 0 0 -17.49682 -1.543346 6.663003 16.08283
1850.406 97.34605 2485.186 8.232229 -3.212554 67.97901 5.891523 -6.478656 7.531137 -0 18.80374 -0 0.6091447 -5.820093 -9.098 -2.297309 4.474392 -6.215305 -0 57.42381 -0 -10.22604 -6.360435 16.25578 -2.036285 0.478647 6.433861 0.757036 11.52784 -5.593013 1.803949 21.25102 4.751477 1.648647 -16.50459 5.757417 4.460169 -18.25672 12.03763 81.17939 24.80224 -10.75328 -0 0 17.60306 -22.50147 12.23955 13.62796 3.031693 -17.95099 -4.487922 -86.86499 20.2365 16.90844 0 0 -17.36182 -1.547556 6.640918 16.09222
1856.307 98.22986 2487.884 8.720106 -3.055665 66.95103 5.526431 -1.916246 7.909065 -0 17.03522 -0 1.81388 -6.559158 -8.545268 -2.036977 -1.546863 -5.329881 -0 58.90659 -0 -10.38371 -6.106385 17.2171 -2.005281 0.4816002 6.511784 0.6960146 11.51734 -5.52011 1.822134 21.24024 4.732841 1.649525 -16.4591 5.758795 4.410084 -18.35207 12.0305 81.10898 24.7026 -10.58099 -0 0 17.86196 -22.55492 12.21796 13.63772 3.061253 -17.8903 -4.451026 -86.98569 20.24768 17.07731 0 0 -17.23239 -1.558406 6.607355 16.10655
1861.983 98.68623 2490.379 9.057475 -2.820886 65.97062 4.880191 3.066678 7.924736 -0 15.64525 -0 2.537684 -8.42185 -7.409903 -1.452091 -8.668034 -4.501268 -0 56.16727 -0 -10.06919 -6.603326 18.44397 -1.969984 0.4824193 6.590915 0.6251913 11.51088 -5.446056 1.848568 21.22773 4.706595 1.64337 -16.3863 5.765702 4.351687 -18.4398 12.01597 81.066 24.56749 -10.43541 -0 0 18.12767 -22.61174 12.20234 13.63238 3.09947 -17.8244 -4.418488 -87.10529 20.25861 17.23665 0 0 -17.0975 -1.575491 6.561183 16.12517
